<svg fill="none" xmlns="http://www.w3.org/2000/svg">
<path d="M20.4278 7.50232C20.2982 7.60164 18.0348 8.87056 18.0348 11.693C18.0348 14.9542 20.9151 16.1135 21 16.1402C20.6552 17.2511 20.1433 18.3037 19.4816 19.2621C18.5354 20.6169 17.5445 21.9718 16.0426 21.9718C14.5406 21.9718 14.1502 21.1017 12.4158 21.1017C10.7245 21.1017 10.1225 22 8.74722 22C7.3719 22 6.41081 20.7459 5.30816 19.2057C4.03267 17.3957 3.00006 14.5896 3.00006 11.9213C3.00006 7.64464 5.79541 5.37659 8.54606 5.37659C10.0078 5.37659 11.2282 6.33274 12.1446 6.33274C13.0177 6.33274 14.3797 5.32026 16.0426 5.32026C16.6729 5.32026 18.9377 5.37807 20.4278 7.50232ZM15.2543 3.51028C15.9865 2.65203 16.4009 1.57006 16.4285 0.444714C16.4303 0.295431 16.4163 0.146375 16.3868 0C15.2677 0.0415066 13.9356 0.74119 13.1325 1.66768C12.5022 2.3807 11.9151 3.50732 11.9151 4.64727C11.9154 4.78134 11.9298 4.91499 11.9583 5.04603C12.0565 5.06525 12.1563 5.07517 12.2563 5.07567C13.2621 5.07863 14.5227 4.4086 15.2543 3.51028Z" fill="white"/>
</svg>
