<svg fill="none" xmlns="http://www.w3.org/2000/svg">
<path fill-rule="evenodd" clip-rule="evenodd" d="M15.0012 2.50007C12.0374 2.50047 9.17039 3.55532 6.91306 5.47592C4.65572 7.39652 3.15532 10.0576 2.68025 12.9831C2.20517 15.9086 2.78642 18.9077 4.32002 21.4439C5.85361 23.9801 8.23951 25.888 11.0509 26.8262C11.6751 26.9421 11.9426 26.5587 11.9426 26.2287C11.9426 25.8988 11.9426 25.1498 11.9426 24.1064C8.47384 24.8555 7.74263 22.43 7.74263 22.43C7.4987 21.6657 6.98531 21.016 6.29804 20.602C5.16555 19.8351 6.38721 19.844 6.38721 19.844C6.78278 19.8999 7.16035 20.0455 7.49108 20.2695C7.82181 20.4936 8.09695 20.7903 8.29549 21.137C8.64089 21.7565 9.21819 22.2135 9.90044 22.4075C10.5827 22.6015 11.314 22.5165 11.9337 22.1714C11.9841 21.5387 12.263 20.946 12.7184 20.5039C9.95409 20.1829 7.03817 19.1128 7.03817 14.3332C7.01795 13.0918 7.47799 11.8906 8.32224 10.9803C7.94011 9.90509 7.98479 8.72426 8.44708 7.68097C8.44708 7.68097 9.4904 7.34211 11.8802 8.95613C13.9236 8.39876 16.0789 8.39876 18.1222 8.95613C20.5031 7.34211 21.5464 7.68097 21.5464 7.68097C22.0087 8.72426 22.0534 9.90509 21.6713 10.9803C22.5155 11.8906 22.9756 13.0918 22.9554 14.3332C22.9554 19.1307 20.0394 20.1829 17.2573 20.495C17.5553 20.7971 17.7851 21.1595 17.9313 21.5579C18.0774 21.9563 18.1364 22.3814 18.1044 22.8045C18.1044 24.4721 18.1044 25.8186 18.1044 26.2287C18.1044 26.6389 18.3273 26.951 18.9961 26.8262C21.8112 25.8868 24.1996 23.9753 25.7329 21.4344C27.2663 18.8935 27.8443 15.8895 27.3634 12.961C26.8825 10.0325 25.3741 7.37116 23.1086 5.45414C20.8432 3.53711 17.9689 2.48982 15.0012 2.50007Z" fill="currentColor"/>
</svg>
