<svg width="1440" height="959" viewBox="0 0 1440 959" fill="none" xmlns="http://www.w3.org/2000/svg">
<g clip-path="url(#clip0_245_15186)">
<path d="M947 132C876.507 305.392 555 793 339.685 697.402C245.278 659.021 225.892 487.345 296.385 313.953C366.878 140.562 500.556 31.1143 594.963 69.4957C634.453 85.5507 660.817 124.929 672.966 178" stroke="currentColor" stroke-width="2" stroke-miterlimit="10"/>
<path d="M880.821 917.403C929.937 937.371 1026.9 812.997 1097.39 639.605C1167.88 466.213 1185.21 309.464 1136.1 289.496C1086.98 269.528 990.02 393.902 919.527 567.294C849.034 740.685 831.705 897.435 880.821 917.403Z" stroke="currentColor" stroke-width="2" stroke-miterlimit="10"/>
<path d="M703.302 688.687C746.415 719.549 869.684 621.186 978.633 468.989C1087.58 316.791 1140.95 168.392 1097.84 137.531C1054.73 106.669 931.457 205.032 822.509 357.23C713.56 509.427 660.19 657.826 703.302 688.687Z" stroke="currentColor" stroke-width="2" stroke-miterlimit="10"/>
<path d="M1014.23 941.641C1038.8 951.628 1115.86 819.162 1186.35 645.771C1256.84 472.379 1294.07 323.721 1269.51 313.734C1244.94 303.748 1167.88 436.213 1097.39 609.605C1026.9 782.997 989.667 931.654 1014.23 941.641Z" stroke="currentColor" stroke-width="2" stroke-miterlimit="10"/>
<path d="M1476.49 140.53C1408.17 102.445 1327.31 92.218 1251.36 112.059C1235.27 116.265 1219.63 121.981 1204.65 129.127C1153.04 86.3636 1092.24 55.0416 1024.24 42.2502C866.043 12.4662 712.053 81.4496 605.999 195.672C565.59 239.297 531.795 288.39 505.649 341.441C462.403 308.434 410.416 288.245 355.833 283.261C270.99 275.346 180.442 307.681 108.271 349.281C-23.2425 425.94 -119.184 549.692 -159.277 694.385C-169.143 731.651 -175.058 769.814 -176.927 808.27C-178.803 843.343 -144.154 876.84 -108.547 875.265C-69.9157 873.577 -42.1961 845.818 -40.1669 808.27C-39.784 801.067 -39.3245 793.865 -38.597 786.663C-38.329 783.662 -37.9461 780.661 -37.6398 777.698C-35.1895 763.443 -32.4712 749.339 -28.8339 735.31C-25.1967 721.281 -21.1766 707.552 -16.1227 694.047C-14.0042 688.071 -11.7582 682.156 -9.38443 676.305C-9.03984 675.442 -8.00607 673.041 -7.20206 671.166C-6.05345 668.69 -4.63684 665.689 -4.33054 664.939C8.14479 638.774 22.8345 613.679 39.5845 589.916C43.7961 583.952 48.2374 578.212 52.5638 572.323C44.9064 582.789 54.1335 570.56 57.3113 566.771C67.3424 554.968 77.8841 543.602 88.9362 532.674C98.6866 523.071 108.82 513.868 119.336 505.065C122.437 502.439 125.653 499.889 128.831 497.338C128.257 497.788 130.937 495.612 132.66 494.224L134.153 493.024C133.655 493.437 133.272 493.774 132.851 494.074L133.464 493.624C137.943 490.473 142.384 487.285 146.941 484.171C171.266 467.76 197.003 453.452 223.859 441.409L224.931 440.958L230.482 438.82C237.604 436.119 244.763 433.644 251.999 431.318C269.688 425.616 287.568 422.128 305.601 418.001L306.979 417.664H307.936C312.531 417.401 317.087 416.876 321.681 416.651C329.666 416.257 337.665 416.257 345.649 416.651C348.75 416.651 351.966 416.989 355.106 417.289C356.675 417.589 360.389 418.264 361.385 418.527C370.267 420.777 378.882 423.591 387.688 426.029C391.057 427.829 394.58 429.33 397.949 431.093C403.998 434.319 409.869 437.782 415.561 441.484C417.705 442.909 419.811 444.409 421.916 445.91C423.065 446.81 424.481 447.935 425.132 448.536C431.603 454.575 438.226 460.239 444.276 466.616C448.104 470.705 451.933 475.019 455.762 479.332L457.178 481.058C447.808 525.16 444.027 570.227 445.922 615.236C448.028 662.726 454.919 715.466 499.523 743.75C556.111 779.798 630.273 746.188 649.263 685.195C663.62 639.056 648.306 584.552 634.829 539.463C626.892 512.384 616.58 486.028 604.008 460.689C605.463 456.113 606.956 451.537 608.526 446.998C610.67 440.846 612.967 434.732 615.341 428.692C616.681 425.204 618.136 421.79 619.514 418.302C619.744 417.776 620.05 417.176 620.433 416.426C633.207 389.447 647.934 363.398 664.501 338.477C668.751 332.288 673.192 326.286 677.557 320.209C678.169 319.347 679.548 317.584 680.428 316.458L682.458 313.945C692.667 301.691 703.337 289.888 714.465 278.534C724.343 268.531 734.643 258.978 745.363 249.876C750.646 245.337 756.083 241.06 761.481 236.672C765.693 233.746 769.828 230.707 774.04 227.819C786.062 219.591 798.454 211.964 811.216 204.937C817.24 201.636 823.327 198.485 829.479 195.484L839.931 190.608L842.151 189.557L844.525 188.732C857.379 183.954 870.478 179.835 883.769 176.391C889.818 174.853 895.906 173.465 902.032 172.302C905.478 171.627 908.962 171.064 912.446 170.427H912.676C926.344 169.526 939.783 168.401 953.451 168.701C959.386 168.701 965.282 169.114 971.217 169.564C972.25 169.564 975.351 169.564 977.917 169.826C978.764 170.113 979.635 170.327 980.52 170.464C992.822 172.491 1005.01 175.12 1017.05 178.341C1023.48 180.179 1029.87 182.093 1036.19 184.456C1039.25 185.506 1042.24 186.706 1045.22 187.794H1045.53C1056.6 193.909 1068.5 198.748 1079.26 205.162C1085.13 208.588 1090.9 212.189 1096.57 215.965C1098.02 216.903 1099.48 217.916 1100.89 218.891C1089.03 236.407 1079.1 255.105 1071.26 274.671C1038.03 357.196 1046.91 452.437 1078.19 533.911C1107.98 611.56 1154.76 708.752 1246.65 727.695C1285.93 735.76 1330.42 730.884 1363.85 707.664C1403.74 679.981 1424.61 640.144 1427.25 592.279C1429.82 545.277 1410.83 497.113 1396.62 452.812C1382.41 407.552 1365.69 363.085 1346.54 319.609C1333.96 291.224 1318.98 263.92 1301.75 237.984C1304.39 237.497 1307.07 237.009 1309.67 236.409H1314.34C1321.12 235.996 1327.93 235.884 1334.75 236.071C1338.16 236.071 1341.56 236.334 1344.97 236.559L1351.71 237.347L1364.61 239.898C1370.43 241.248 1376.18 242.823 1381.84 244.624C1387.32 246.387 1402.67 253.664 1389.23 246.95C1396.05 250.363 1402.86 253.552 1409.45 257.453C1414.58 260.454 1419.29 263.905 1424.3 267.056C1410.71 258.541 1426.48 269.231 1430.24 272.757C1435.41 277.596 1440.11 282.773 1444.9 287.95L1445.47 288.587L1444.1 286.599L1445.78 288.962C1446.73 290.159 1447.6 291.412 1448.38 292.714C1449.46 294.251 1450.57 295.789 1451.6 297.365C1454.93 302.466 1458.11 307.681 1461.02 313.007C1462.86 316.383 1467.64 327.299 1467.22 325.648C1471.53 337.008 1475.01 348.653 1477.64 360.497C1478.82 365.973 1480.39 383.829 1479.44 368.561C1479.86 375.576 1480.66 382.516 1480.85 389.53C1481.04 396.545 1480.85 403.56 1480.55 410.574C1480.24 415.713 1477.83 429.968 1479.36 422.69C1477.05 435.211 1473.89 447.567 1469.9 459.677C1469.02 462.265 1467.99 464.816 1467.07 467.179C1463.74 473.668 1460.52 480.12 1456.85 486.422C1439.12 516.881 1448.5 561.07 1481.39 578.1C1514.28 595.13 1556.01 586.577 1574.96 554.055C1654.79 417.664 1620.37 222.792 1476.49 140.53ZM-38.4056 781.974C-38.6353 783.475 -38.7502 784.037 -38.4056 781.974V781.974ZM518.475 644.495C519.241 651.622 517.786 647.421 518.475 644.495V644.495ZM1168.24 283.111L1168.62 283.561L1169.85 285.061C1166.36 280.56 1166.9 281.273 1168.32 282.998L1168.24 283.111ZM1270.2 595.355C1270.2 595.018 1271.61 595.58 1273.15 596.368C1272.14 596.13 1271.17 595.751 1270.27 595.243L1270.2 595.355ZM1275.94 597.906C1278.43 599.331 1279.77 600.344 1275.94 597.906V597.906ZM1287.35 598.018C1287.33 597.932 1287.33 597.842 1287.35 597.756L1289.42 596.105C1289.25 596.838 1288.95 597.537 1288.54 598.168L1287.35 598.018ZM1284.63 598.018H1285.7C1285.05 598.356 1284.59 598.206 1284.71 597.756L1284.63 598.018ZM1287.62 598.506H1288.46C1288.19 598.393 1287.96 598.469 1287.69 598.244L1287.62 598.506ZM1290.3 596.143V595.805C1290.07 598.844 1289.76 601.62 1290.3 595.805V595.43L1289.57 595.955L1289.04 596.33L1287.39 597.831C1287.37 597.707 1287.37 597.58 1287.39 597.456L1286.13 598.244H1284.75C1285.2 597.474 1285.85 596.829 1286.62 596.368C1282.6 596.743 1278.7 597.268 1281.99 597.981C1280.08 597.78 1278.17 597.68 1276.25 597.681L1273.83 597.043C1272.15 595.761 1270.29 594.702 1268.32 593.892H1267.9C1265.14 591.304 1262.23 588.866 1259.55 586.39C1256.87 583.914 1254.27 580.501 1251.51 577.65C1251.39 577.547 1251.27 577.434 1251.17 577.312L1249.48 574.649C1241.16 561.994 1233.49 548.936 1226.51 535.525C1222.42 527.535 1218.55 519.432 1214.8 511.255L1214.15 509.829L1213.69 508.704C1211.58 503.49 1209.51 498.276 1207.6 493.024C1201.75 477.006 1196.93 460.644 1193.16 444.034C1192.13 439.683 1191.21 435.332 1190.37 430.98C1190.37 430.08 1189.37 425.504 1188.88 422.878C1188.65 421.152 1188.42 419.127 1188.38 419.127C1187.77 412.487 1187.27 405.81 1187.04 399.133C1186.81 392.456 1187.04 385.029 1187.04 378.014C1187.04 373.963 1187.46 369.949 1187.84 365.936C1187.84 364.923 1188.42 361.284 1188.72 358.959C1189.6 354.945 1191.29 346.917 1191.75 344.929C1193.32 338.552 1195.19 332.288 1197.26 326.174C1200.55 331.675 1203.73 337.252 1206.8 342.904C1214.96 357.908 1222.44 373.325 1229.23 389.155L1231.11 393.882C1232.83 398.158 1234.55 402.434 1236.24 406.748C1239.61 415.376 1242.86 424.053 1246 432.781C1258.56 467.629 1269.47 503.077 1280.08 538.563C1282.72 547.528 1285.44 556.531 1287.73 565.646C1288.77 569.922 1289.8 574.274 1290.53 578.625C1290.53 579.638 1290.53 580.801 1290.53 582.376C1290.53 585.077 1290.53 587.703 1290.53 590.329C1290.53 590.329 1290.53 590.329 1290.53 591.041C1290.53 591.754 1290.53 591.566 1290.53 591.867C1290.53 591.379 1290.53 591.004 1290.53 590.741C1290.53 591.229 1290.53 591.679 1290.53 592.167C1290.53 592.429 1290.53 592.954 1290.53 593.592C1292.79 591.829 1294.74 591.116 1290.53 594.642H1290.95L1290.45 594.943V595.28L1291.18 594.68C1291.82 594.718 1292.44 594.884 1293.02 595.168C1293.02 595.168 1292.1 595.393 1290.41 595.543L1290.3 596.143ZM1290.57 578.287C1290.26 575.286 1290.57 571.873 1290.57 578.287V578.287ZM1304.39 237.534C1305.61 237.067 1306.91 236.85 1308.22 236.897L1304.39 237.534Z" fill="#FEA4E2"/>
</g>
<defs>
<clipPath id="clip0_245_15186">
<rect width="1440" height="959" fill="currentColor"/>
</clipPath>
</defs>
</svg>
