<svg width="1964" height="1127" viewBox="0 0 1964 1127" fill="none" xmlns="http://www.w3.org/2000/svg">
<path d="M1230.51 220.315C1153.34 410.137 801.365 943.951 565.647 839.295C462.294 797.276 441.071 609.332 518.243 419.51C595.416 229.687 741.761 109.869 845.114 151.887C888.347 169.464 917.209 212.573 930.51 270.673" stroke="white" stroke-width="2.18952" stroke-miterlimit="10"/>
<path d="M1158.06 1080.14C1211.83 1102 1317.98 965.843 1395.15 776.02C1472.33 586.198 1491.3 414.595 1437.53 392.735C1383.76 370.874 1277.61 507.034 1200.43 696.857C1123.26 886.679 1104.29 1058.28 1158.06 1080.14Z" stroke="white" stroke-width="2.18952" stroke-miterlimit="10"/>
<path d="M965.302 806.687C1008.41 837.549 1131.68 739.186 1240.63 586.989C1349.58 434.791 1402.95 286.392 1359.84 255.531C1316.73 224.669 1193.46 323.032 1084.51 475.23C975.56 627.427 922.19 775.826 965.302 806.687Z" stroke="white" stroke-width="2" stroke-miterlimit="10"/>
<path d="M1304.11 1106.68C1331 1117.61 1415.37 972.592 1492.54 782.77C1569.71 592.948 1610.47 430.203 1583.58 419.27C1556.69 408.337 1472.33 553.355 1395.15 743.178C1317.98 933 1277.22 1095.74 1304.11 1106.68Z" stroke="white" stroke-width="2.18952" stroke-miterlimit="10"/>
<path d="M1810.17 229.653C1735.38 187.958 1646.86 176.763 1563.71 198.484C1546.09 203.089 1528.97 209.346 1512.58 217.169C1456.08 170.353 1389.51 136.063 1315.07 122.06C1141.88 89.4536 973.3 164.974 857.196 290.02C812.958 337.779 775.96 391.523 747.338 449.602C699.993 413.467 643.08 391.366 583.325 385.909C490.441 377.244 391.313 412.643 312.303 458.185C168.328 542.108 63.2952 677.588 19.4025 835.991C8.60103 876.788 2.12588 918.568 0.0797899 960.667C-1.97404 999.064 35.9588 1035.74 74.9396 1034.01C117.232 1032.16 147.578 1001.77 149.799 960.667C150.219 952.783 150.722 944.898 151.518 937.013C151.811 933.728 152.231 930.443 152.566 927.199C155.249 911.594 158.224 896.153 162.206 880.794C166.188 865.435 170.589 850.405 176.122 835.622C178.441 829.078 180.9 822.604 183.499 816.197C183.876 815.253 185.008 812.625 185.888 810.571C187.145 807.861 188.696 804.576 189.032 803.755C202.689 775.11 218.771 747.637 237.108 721.623C241.719 715.093 246.581 708.81 251.317 702.363C242.934 713.82 253.036 700.433 256.515 696.285C267.496 683.363 279.037 670.92 291.136 658.956C301.811 648.443 312.904 638.368 324.417 628.731C327.812 625.857 331.333 623.064 334.812 620.272C334.183 620.765 337.117 618.383 339.003 616.863L340.638 615.549C340.093 616.001 339.674 616.371 339.213 616.699L339.883 616.206C344.787 612.757 349.649 609.266 354.637 605.858C381.268 587.891 409.443 572.227 438.844 559.043L440.018 558.55L446.095 556.209C453.892 553.252 461.73 550.542 469.651 547.996C489.016 541.754 508.59 537.935 528.332 533.417L529.841 533.048H530.889C535.919 532.76 540.907 532.185 545.937 531.939C554.677 531.508 563.435 531.508 572.175 531.939C575.57 531.939 579.091 532.309 582.528 532.637C584.247 532.966 588.312 533.705 589.402 533.992C599.126 536.456 608.557 539.536 618.198 542.206C621.886 544.177 625.743 545.819 629.431 547.749C636.054 551.281 642.48 555.073 648.712 559.125C651.059 560.685 653.365 562.328 655.67 563.97C656.927 564.956 658.478 566.188 659.191 566.845C666.274 573.457 673.525 579.658 680.148 586.639C684.339 591.115 688.531 595.838 692.722 600.56L694.273 602.449C684.015 650.731 679.876 700.068 681.95 749.342C684.255 801.332 691.8 859.07 740.631 890.034C802.581 929.498 883.77 892.703 904.56 825.93C920.278 775.419 903.512 715.75 888.758 666.389C880.069 636.744 868.78 607.89 855.016 580.15C856.609 575.14 858.244 570.13 859.963 565.161C862.31 558.427 864.824 551.733 867.423 545.121C868.89 541.302 870.483 537.565 871.992 533.746C872.244 533.171 872.579 532.514 872.998 531.693C886.983 502.157 903.105 473.64 921.242 446.358C925.895 439.582 930.756 433.011 935.535 426.359C936.205 425.414 937.714 423.484 938.678 422.252L940.9 419.5C952.077 406.086 963.757 393.164 975.941 380.734C986.755 369.783 998.03 359.325 1009.77 349.36C1015.55 344.391 1021.5 339.709 1027.41 334.905C1032.02 331.702 1036.55 328.375 1041.16 325.213C1054.32 316.206 1067.89 307.856 1081.86 300.163C1088.45 296.549 1095.12 293.1 1101.85 289.814L1113.3 284.476L1115.73 283.326L1118.33 282.422C1132.4 277.192 1146.74 272.682 1161.29 268.912C1167.91 267.228 1174.57 265.709 1181.28 264.436C1185.05 263.696 1188.87 263.08 1192.68 262.382H1192.93C1207.9 261.397 1222.61 260.165 1237.57 260.493C1244.07 260.493 1250.53 260.945 1257.02 261.438C1258.15 261.438 1261.55 261.438 1264.36 261.725C1265.28 262.039 1266.24 262.273 1267.21 262.423C1280.67 264.643 1294.02 267.521 1307.19 271.047C1314.24 273.059 1321.24 275.154 1328.15 277.741C1331.5 278.891 1334.77 280.205 1338.04 281.396H1338.38C1350.49 288.09 1363.53 293.387 1375.31 300.409C1381.73 304.16 1388.05 308.102 1394.25 312.236C1395.84 313.263 1397.44 314.372 1398.99 315.439C1386 334.615 1375.13 355.084 1366.55 376.504C1330.16 466.85 1339.89 571.116 1374.13 660.311C1406.74 745.318 1457.96 851.719 1558.56 872.458C1601.56 881.287 1650.27 875.948 1686.86 850.529C1730.53 820.222 1753.38 776.61 1756.27 724.21C1759.08 672.754 1738.29 620.025 1722.74 571.527C1707.18 521.978 1688.88 473.297 1667.91 425.701C1654.14 394.626 1637.74 364.735 1618.87 336.342C1621.76 335.808 1624.7 335.274 1627.55 334.617H1632.66C1640.08 334.165 1647.54 334.042 1655 334.248C1658.73 334.248 1662.46 334.535 1666.19 334.781L1673.57 335.644L1687.7 338.436C1694.07 339.915 1700.35 341.64 1706.56 343.611C1712.55 345.541 1729.36 353.508 1714.65 346.157C1722.11 349.894 1729.57 353.384 1736.78 357.655C1742.4 360.94 1747.55 364.719 1753.04 368.168C1738.16 358.846 1755.43 370.55 1759.54 374.41C1765.2 379.708 1770.35 385.375 1775.59 391.042L1776.22 391.74L1774.71 389.563L1776.56 392.151C1777.59 393.461 1778.54 394.832 1779.41 396.257C1780.58 397.941 1781.8 399.625 1782.93 401.349C1786.57 406.934 1790.05 412.642 1793.24 418.474C1795.25 422.17 1800.49 434.12 1800.03 432.313C1804.75 444.749 1808.56 457.498 1811.43 470.463C1812.73 476.459 1814.45 496.006 1813.4 479.293C1813.86 486.972 1814.74 494.569 1814.95 502.248C1815.16 509.928 1814.95 517.607 1814.61 525.286C1814.28 530.912 1811.64 546.517 1813.32 538.551C1810.79 552.258 1807.33 565.785 1802.96 579.042C1802 581.875 1800.87 584.668 1799.86 587.255C1796.21 594.359 1792.69 601.423 1788.67 608.322C1769.26 641.667 1779.53 690.043 1815.54 708.687C1851.54 727.331 1897.23 717.968 1917.98 682.364C2005.37 533.048 1967.69 319.71 1810.17 229.653ZM151.728 931.88C151.476 933.523 151.35 934.139 151.728 931.88V931.88ZM761.379 781.374C762.217 789.176 760.624 784.577 761.379 781.374V781.374ZM1472.72 385.744L1473.13 386.237L1474.48 387.88C1470.66 382.952 1471.25 383.732 1472.8 385.621L1472.72 385.744ZM1584.33 727.577C1584.33 727.208 1585.89 727.824 1587.56 728.686C1586.46 728.425 1585.4 728.01 1584.42 727.454L1584.33 727.577ZM1590.62 730.37C1593.35 731.93 1594.81 733.039 1590.62 730.37V730.37ZM1603.11 730.493C1603.09 730.399 1603.09 730.3 1603.11 730.205L1605.38 728.398C1605.19 729.201 1604.87 729.965 1604.41 730.657L1603.11 730.493ZM1600.14 730.493H1601.31C1600.6 730.862 1600.09 730.698 1600.22 730.205L1600.14 730.493ZM1603.41 731.027H1604.33C1604.03 730.904 1603.78 730.986 1603.49 730.739L1603.41 731.027ZM1606.34 728.44V728.07C1606.09 731.396 1605.75 734.435 1606.34 728.07V727.659L1605.54 728.234L1604.96 728.645L1603.15 730.288C1603.13 730.152 1603.13 730.013 1603.15 729.877L1601.77 730.739H1600.26C1600.76 729.897 1601.47 729.19 1602.32 728.686C1597.92 729.097 1593.64 729.672 1597.24 730.452C1595.16 730.232 1593.06 730.122 1590.96 730.123L1588.32 729.425C1586.47 728.022 1584.44 726.862 1582.28 725.976H1581.82C1578.8 723.142 1575.62 720.473 1572.68 717.762C1569.75 715.052 1566.9 711.315 1563.88 708.194C1563.74 708.081 1563.62 707.958 1563.5 707.824L1561.66 704.909C1552.55 691.055 1544.15 676.76 1536.51 662.077C1532.02 653.33 1527.79 644.46 1523.68 635.507L1522.97 633.947L1522.47 632.715C1520.16 627.007 1517.9 621.298 1515.8 615.549C1509.4 598.013 1504.12 580.101 1500 561.917C1498.87 557.154 1497.86 552.39 1496.94 547.626C1496.94 546.641 1495.85 541.631 1495.31 538.756C1495.06 536.867 1494.8 534.649 1494.76 534.649C1494.09 527.381 1493.55 520.071 1493.3 512.761C1493.04 505.452 1493.3 497.32 1493.3 489.641C1493.3 485.206 1493.76 480.812 1494.18 476.418C1494.18 475.309 1494.8 471.326 1495.14 468.78C1496.1 464.386 1497.95 455.597 1498.45 453.421C1500.17 446.44 1502.22 439.582 1504.49 432.888C1508.09 438.911 1511.57 445.016 1514.92 451.203C1523.87 467.63 1532.05 484.508 1539.49 501.838L1541.54 507.012C1543.43 511.694 1545.31 516.375 1547.16 521.098C1550.84 530.543 1554.41 540.043 1557.84 549.597C1571.59 587.748 1583.54 626.555 1595.15 665.403C1598.04 675.218 1601.02 685.074 1603.53 695.053C1604.66 699.734 1605.8 704.498 1606.59 709.262C1606.59 710.371 1606.59 711.644 1606.59 713.368C1606.59 716.325 1606.59 719.2 1606.59 722.074C1606.59 722.074 1606.59 722.074 1606.59 722.855C1606.59 723.635 1606.59 723.43 1606.59 723.758C1606.59 723.224 1606.59 722.814 1606.59 722.526C1606.59 723.06 1606.59 723.553 1606.59 724.087C1606.59 724.374 1606.59 724.949 1606.59 725.647C1609.06 723.717 1611.2 722.937 1606.59 726.797H1607.05L1606.51 727.125V727.495L1607.3 726.838C1608 726.88 1608.69 727.062 1609.32 727.372C1609.32 727.372 1608.31 727.618 1606.47 727.783L1606.34 728.44ZM1606.63 708.892C1606.3 705.607 1606.63 701.87 1606.63 708.892V708.892ZM1621.76 335.849C1623.1 335.337 1624.52 335.1 1625.96 335.151L1621.76 335.849Z" fill="#FEA4E2"/>
</svg>
