<svg fill="none" xmlns="http://www.w3.org/2000/svg">
<path fill-rule="evenodd" clip-rule="evenodd" d="M18.4049 10.0589C18.0064 8.19696 17.3138 6.39291 16.347 4.69895C15.8636 3.88435 15.2426 3.13856 14.505 2.48692C13.4644 1.59435 12.5148 1.11727 11.5678 1.01682C10.4569 0.900403 9.33555 1.39349 8.57848 2.33171C7.8214 3.26993 7.59506 4.23553 7.48058 5.27647V5.29932L7.27766 5.32672C7.05639 5.36499 6.84258 5.43111 6.64286 5.52303C6.41131 5.64174 6.31245 5.69424 6.26302 5.9248C6.2382 6.03872 6.24162 6.15599 6.27305 6.26864C6.30447 6.3813 6.36316 6.48669 6.44513 6.57768C6.65232 6.8119 6.90835 7.00943 7.19961 7.15977C6.64798 8.32386 6.315 9.68527 6.00692 10.9449C5.97064 11.0932 5.9347 11.2402 5.89879 11.3852C5.51938 12.8348 5.25855 14.3064 5.1183 15.7887C5.04673 16.5037 5.01808 17.2215 5.03245 17.9391C5.05326 18.4641 5.14171 19.2265 5.67505 19.7995C5.75562 19.8808 5.84255 19.9571 5.93521 20.0278C5.52967 20.4366 5.21784 20.9101 5.01683 21.4226C4.9952 21.49 4.99441 21.5613 5.01452 21.6291C5.03464 21.6969 5.07494 21.7588 5.1313 21.8084C5.18942 21.8586 5.26186 21.8942 5.34104 21.9115C5.42022 21.9288 5.50323 21.9271 5.58139 21.9066L6.13034 21.7331C6.237 21.708 6.34107 21.6806 6.44513 21.6463C6.44513 21.6876 6.43756 21.7298 6.42984 21.7727C6.42476 21.801 6.41961 21.8296 6.41651 21.8586C6.41262 22.0275 6.48349 22.1911 6.61424 22.3152C6.69701 22.3937 6.8077 22.4453 6.92821 22.4615C7.04872 22.4776 7.17192 22.4574 7.27766 22.4042C7.41376 22.3555 7.54226 22.2918 7.6601 22.2147C7.8117 22.3155 7.99144 22.3786 8.18043 22.3973C8.41982 22.4191 8.66064 22.3701 8.86465 22.2581C9.15002 22.0877 9.35813 21.8348 9.45263 21.5436C9.49244 21.429 9.51945 21.3112 9.53328 21.192L9.7362 21.2172C10.2642 21.2814 10.7957 21.3218 11.3284 21.3381C11.2609 21.5295 11.213 21.7259 11.1853 21.9248C11.1359 22.1333 11.1642 22.3501 11.266 22.5434C11.3397 22.6497 11.4529 22.7304 11.5866 22.772C11.7202 22.8136 11.8661 22.8135 11.9996 22.7717C12.1892 22.6938 12.3412 22.5596 12.4289 22.3928C12.4731 22.3312 12.4731 22.3312 12.5277 22.3334L12.5278 22.3334C12.7 22.3334 12.8405 22.5318 12.9578 22.6974L12.9831 22.7329L13.0169 22.7854C13.0819 22.8684 13.1763 22.9301 13.2855 22.9611C13.3947 22.992 13.5124 22.9905 13.6205 22.9566C13.7101 22.9354 13.7896 22.8892 13.8468 22.825C13.904 22.7608 13.936 22.682 13.9378 22.6005H13.9561C14.0757 22.6142 14.2162 22.7398 14.3151 22.8288L14.3697 22.879C14.4617 22.9572 14.585 23.0007 14.7131 23C14.7561 22.9998 14.7989 22.9952 14.8406 22.9863C14.9213 22.9678 14.9953 22.9318 15.0557 22.8815C15.1162 22.8312 15.1613 22.7683 15.1866 22.6987C15.3023 22.426 15.3521 22.1353 15.3328 21.8449C15.3136 21.5544 15.2257 21.2707 15.0748 21.0117L15.1022 21.0056C15.2377 20.9753 15.3839 20.9427 15.5301 20.9021C15.7382 21.1989 15.9411 21.4705 16.144 21.7239C16.1952 21.7976 16.267 21.8585 16.3526 21.9009C16.4383 21.9432 16.5349 21.9656 16.6332 21.9659C16.7325 21.966 16.8301 21.9433 16.9164 21.9C17.0026 21.8568 17.0745 21.7945 17.1249 21.7194C19.0709 18.6102 19.5106 14.6861 18.4049 10.0589ZM12.1167 21.3518C12.7503 21.3401 13.3822 21.2905 14.0081 21.2034C14.1511 21.3811 14.252 21.5821 14.3047 21.7947C14.1661 21.7509 14.02 21.7286 13.8728 21.7285H13.8078C13.6803 21.7444 13.5569 21.7799 13.4435 21.8335C13.3351 21.7416 13.2114 21.6647 13.0767 21.6052C12.9165 21.5301 12.738 21.4901 12.5564 21.4888H12.4861C12.3485 21.4957 12.2134 21.5251 12.0881 21.5755C12.0881 21.5048 12.1011 21.4294 12.1167 21.3518ZM6.66887 20.4844C7.26021 20.7528 7.89435 20.9414 8.54986 21.0437C8.54745 21.1941 8.49989 21.3414 8.41197 21.4705C8.39288 21.4973 8.36646 21.5195 8.33511 21.5351C8.30376 21.5506 8.26847 21.559 8.23246 21.5596C8.22059 21.5627 8.20791 21.5627 8.19604 21.5596C8.19475 21.47 8.15993 21.3832 8.09693 21.3127C8.03394 21.2421 7.94627 21.1917 7.84742 21.1692C7.75503 21.147 7.65711 21.1502 7.56686 21.1784C7.47661 21.2066 7.39837 21.2583 7.3427 21.3267C7.31211 21.1763 7.22837 21.0382 7.10335 20.9318C6.99343 20.8634 6.86522 20.8212 6.73118 20.8092C6.59715 20.7972 6.46185 20.8158 6.33846 20.8633C6.43907 20.7308 6.54944 20.6042 6.66887 20.4844ZM12.106 10.2624L12.106 10.2624L12.0647 10.2096C11.9164 10.0087 11.7629 9.81008 11.5964 9.62061C11.3234 9.3011 10.9971 9.01944 10.6286 8.78511C10.2017 8.53579 9.7146 8.37694 9.20576 8.32108C8.69692 8.26522 8.18025 8.31391 7.69652 8.46326C7.72499 8.3807 7.76407 8.18962 7.80422 7.99328C7.84844 7.77699 7.89397 7.55434 7.92807 7.4634C8.12202 7.52622 8.3212 7.5758 8.52384 7.61176C8.59119 7.63029 8.66213 7.63662 8.73235 7.63034C8.80257 7.62406 8.8706 7.60533 8.9323 7.57525C8.97654 7.55377 8.9966 7.54993 9.00591 7.54815C9.00988 7.54739 9.01189 7.547 9.013 7.54579C9.01414 7.54453 9.0143 7.54239 9.01464 7.53803C9.01533 7.52915 9.01673 7.51106 9.02856 7.47251C9.04775 7.41265 9.0528 7.35 9.04341 7.28837C9.03401 7.22674 9.01037 7.16745 8.97393 7.11412C8.93837 7.06121 8.89102 7.01512 8.83469 6.97864C8.77836 6.94216 8.71422 6.91603 8.64612 6.90181C8.54986 6.88127 8.4588 6.85846 8.36514 6.83335L8.17262 6.77171C8.01743 6.69696 7.86874 6.61227 7.72774 6.51832C7.6575 6.47951 7.504 6.39275 7.46758 6.30373L7.37652 6.19644C7.37652 6.13481 7.6679 6.0549 7.73294 6.04806L8.54466 5.94763C8.84802 5.95232 9.14636 5.87933 9.4032 5.7376L9.42661 5.71935L9.44147 5.70606C9.54971 5.60932 9.58691 5.57607 9.5645 5.434C9.54319 5.299 9.47666 5.26415 9.3453 5.19534L9.30433 5.17376C9.13023 5.1035 8.93473 5.08506 8.74759 5.12126L8.19864 5.25137C8.42323 4.47587 8.8048 3.7421 9.32515 3.08501C9.7284 2.55769 10.5167 1.97102 11.4065 2.0669C12.3951 2.16962 13.2692 2.8864 13.839 3.41829C14.4548 3.99748 14.9798 4.6462 15.4 5.34725C16.3626 6.92922 16.8855 8.74859 17.2341 10.1571C17.6882 11.9161 17.8832 13.719 17.8143 15.5216C17.7442 17.2292 17.3128 18.9106 16.5421 20.4798C15.5318 19.1191 14.7707 17.6278 14.2865 16.0603C14.0341 15.342 13.7371 14.6363 13.3967 13.9465C13.1735 13.4443 13.0368 12.9157 12.9909 12.3782C12.981 12.266 12.9378 12.1472 12.8944 12.0278C12.8574 11.9261 12.8203 11.824 12.8035 11.7253L12.3066 10.5383C12.2484 10.4437 12.1742 10.3492 12.106 10.2624ZM10.3736 3.84517C10.2495 3.75055 10.0905 3.69866 9.92613 3.6991C9.84266 3.69937 9.75988 3.71249 9.68158 3.73789C9.5933 3.76759 9.51327 3.81351 9.44686 3.87256C9.38045 3.93162 9.3292 4.00245 9.29653 4.0803C9.25939 4.17799 9.24783 4.28178 9.26271 4.38393C9.2699 4.44794 9.28652 4.51085 9.31214 4.57111C9.35005 4.64461 9.40477 4.71051 9.4729 4.76469C9.54104 4.81888 9.62113 4.86021 9.70822 4.8861C9.7953 4.912 9.88752 4.92192 9.97916 4.91525C10.0708 4.90858 10.1599 4.88545 10.2409 4.84731C10.3709 4.78587 10.4758 4.69042 10.5411 4.57423C10.6064 4.45804 10.6288 4.32689 10.6052 4.19901C10.5762 4.06136 10.4945 3.93651 10.3736 3.84517ZM13.0455 4.51632C13.0465 4.52543 13.0465 4.5346 13.0455 4.54371C13.126 4.6859 13.1454 4.84882 13.1001 5.00255C13.0756 5.06723 13.0396 5.1281 12.9935 5.1829C12.9308 5.27721 12.8443 5.35755 12.7405 5.41773C12.6367 5.47791 12.5185 5.51628 12.3951 5.52986C12.2803 5.53321 12.1669 5.50618 12.0699 5.45225C11.9438 5.37228 11.8439 5.26455 11.7804 5.1399C11.7169 5.01525 11.692 4.8781 11.7082 4.74231C11.7051 4.69012 11.7141 4.6379 11.7347 4.58885C11.7553 4.5398 11.787 4.49493 11.8279 4.45696C11.9128 4.3662 12.0149 4.28898 12.1297 4.22869C12.2886 4.17217 12.4645 4.16414 12.6292 4.20586C12.6829 4.22311 12.735 4.24371 12.7853 4.2675C12.8339 4.28931 12.8793 4.31613 12.9206 4.34739C12.9754 4.39531 13.018 4.45289 13.0455 4.51632Z" fill="white"/>
</svg>
