<svg fill="none" xmlns="http://www.w3.org/2000/svg">
<g clip-path="url(#clip0_117_12990)">
<path d="M31.865 7.26999C31.7225 5.42504 30.9252 3.69183 29.6167 2.38337C28.3082 1.07491 26.5749 0.277449 24.73 0.135C20.2466 -0.045 15.76 -0.045 11.27 0.135C9.40028 0.259358 7.64344 1.07366 6.34008 2.41999L2.70995 6.04999C1.21191 7.39384 0.289677 9.26348 0.135 11.27C-0.045 15.7533 -0.045 20.24 0.135 24.73C0.278445 26.5746 1.07625 28.3072 2.38451 29.6155C3.69278 30.9238 5.42541 31.7215 7.27001 31.865C11.7533 32.045 16.24 32.045 20.73 31.865C22.3584 31.7537 23.9071 31.1188 25.145 30.055C26.8751 28.4991 28.5208 26.8517 30.0749 25.12C31.1385 23.8936 31.7677 22.3505 31.865 20.73C32.045 16.2467 32.045 11.76 31.865 7.26999ZM26.365 24.66C26.2407 26.1298 25.6011 27.5083 24.5591 28.5522C23.517 29.5961 22.1397 30.2382 20.6702 30.365C18.4552 30.455 16.215 30.5 14 30.5C11.785 30.5 9.54508 30.455 7.34008 30.365C5.87032 30.2408 4.49164 29.6011 3.44774 28.5591C2.40385 27.517 1.76181 26.1395 1.635 24.67C1.455 20.245 1.455 15.755 1.635 11.34C1.75923 9.87024 2.39884 8.49166 3.44091 7.44776C4.48298 6.40386 5.86053 5.76181 7.33007 5.635C9.54007 5.545 11.785 5.49999 14 5.49999C16.215 5.49999 18.4601 5.545 20.6601 5.635C22.1299 5.75923 23.5083 6.39887 24.5522 7.44094C25.5961 8.48301 26.2382 9.86045 26.365 11.33C26.545 15.74 26.545 20.24 26.365 24.66Z" fill="currentColor"/>
<path d="M23.3602 11.64C23.284 10.8558 22.9321 10.124 22.3673 9.57477C21.8024 9.02549 21.0612 8.69427 20.2752 8.64C18.1252 8.545 16.0101 8.5 14.0001 8.5C11.9901 8.5 9.87518 8.545 7.72518 8.64C6.93951 8.69525 6.19876 9.02679 5.63411 9.57588C5.06946 10.125 4.71739 10.8562 4.64022 11.64C4.45521 14.5454 4.45521 17.4596 4.64022 20.365C4.71642 21.1492 5.06805 21.881 5.63289 22.4302C6.19774 22.9795 6.93917 23.3107 7.72518 23.365C9.87518 23.46 11.9901 23.505 14.0001 23.505C16.0101 23.505 18.1252 23.46 20.2752 23.365C21.0609 23.3098 21.8016 22.9782 22.3663 22.4291C22.9309 21.88 23.283 21.1488 23.3602 20.365C23.5454 17.4596 23.5454 14.5454 23.3602 11.64ZM17.0001 13C17.0001 12.7348 17.1055 12.4804 17.293 12.2929C17.4806 12.1054 17.7349 12 18.0001 12C18.2653 12 18.5198 12.1054 18.7074 12.2929C18.8949 12.4804 19.0001 12.7348 19.0001 13V15C19.0001 15.2652 18.8949 15.5196 18.7074 15.7071C18.5198 15.8946 18.2653 16 18.0001 16C17.7349 16 17.4806 15.8946 17.293 15.7071C17.1055 15.5196 17.0001 15.2652 17.0001 15V13ZM9.00008 13C9.00008 12.7348 9.10551 12.4804 9.29305 12.2929C9.48059 12.1054 9.73486 12 10.0001 12C10.2653 12 10.5198 12.1054 10.7074 12.2929C10.8949 12.4804 11.0001 12.7348 11.0001 13V15C11.0001 15.2652 10.8949 15.5196 10.7074 15.7071C10.5198 15.8946 10.2653 16 10.0001 16C9.73486 16 9.48059 15.8946 9.29305 15.7071C9.10551 15.5196 9.00008 15.2652 9.00008 15V13ZM19.8951 18.305C18.8951 19.635 16.5551 20.5 14.0001 20.5C11.4451 20.5 9.13006 19.635 8.10506 18.305C8.02442 18.2002 7.98858 18.0676 8.00545 17.9364C8.02232 17.8052 8.0906 17.6861 8.19515 17.605C8.3 17.5244 8.4326 17.4885 8.5638 17.5054C8.695 17.5223 8.81406 17.5905 8.8951 17.695C9.7251 18.775 11.7801 19.5 14.0001 19.5C16.2201 19.5 18.2701 18.775 19.1051 17.695C19.1861 17.5905 19.3054 17.5223 19.4366 17.5054C19.5678 17.4885 19.7004 17.5244 19.8053 17.605C19.9098 17.6861 19.9778 17.8052 19.9947 17.9364C20.0116 18.0676 19.9757 18.2002 19.8951 18.305Z" fill="currentColor"/>
</g>
<path d="M48.368 25V11.584L57.248 25H59.6V7.648H57.248V21.064L48.368 7.648H46.016V25H48.368ZM64.361 10.48C65.177 10.48 65.849 9.808 65.849 8.992C65.849 8.152 65.177 7.504 64.361 7.504C63.545 7.504 62.873 8.152 62.873 8.992C62.873 9.808 63.545 10.48 64.361 10.48ZM63.257 25H65.513V13.264H63.257V25ZM68.0203 19.144C68.0203 22.84 70.3003 25.288 73.7563 25.288C76.5883 25.288 78.7723 23.584 79.2283 21.04H76.9723C76.5643 22.432 75.3643 23.272 73.7563 23.272C71.6203 23.272 70.2523 21.64 70.2523 19.12C70.2523 16.576 71.7163 14.944 73.8523 14.944C75.3643 14.944 76.5643 15.736 76.9483 17.224H79.2043C78.7963 14.608 76.7323 12.928 73.7803 12.928C70.3483 12.928 68.0203 15.472 68.0203 19.144ZM86.6726 25.288C89.5766 25.288 91.5446 23.872 92.1206 21.352H90.0086C89.6246 22.696 88.4726 23.416 86.7206 23.416C84.4886 23.416 83.1926 22.048 83.0246 19.576L92.0966 19.552V18.712C92.0966 15.232 89.9126 12.928 86.5766 12.928C83.1686 12.928 80.8406 15.472 80.8406 19.144C80.8406 22.792 83.2166 25.288 86.6726 25.288ZM86.5766 14.824C88.5686 14.824 89.8406 16.12 89.8406 18.064H83.0726C83.3606 16 84.6086 14.824 86.5766 14.824ZM97.3524 25V11.584L106.232 25H108.584V7.648H106.232V21.064L97.3524 7.648H95.0004V25H97.3524ZM111.473 19.12C111.473 22.744 114.065 25.288 117.593 25.288C121.097 25.288 123.689 22.744 123.689 19.12C123.689 15.496 121.097 12.952 117.593 12.952C114.065 12.952 111.473 15.496 111.473 19.12ZM113.753 19.12C113.753 16.672 115.313 14.968 117.593 14.968C119.849 14.968 121.433 16.672 121.433 19.12C121.433 21.568 119.849 23.272 117.593 23.272C115.313 23.272 113.753 21.568 113.753 19.12ZM130.891 25.288C132.763 25.288 134.347 24.472 135.115 22.864L135.307 25H137.323V7.336H135.091V15.16C134.299 13.72 132.787 12.928 130.987 12.928C127.507 12.928 125.419 15.568 125.419 19.168C125.419 22.744 127.483 25.288 130.891 25.288ZM131.347 23.248C129.043 23.248 127.699 21.52 127.699 19.096C127.699 16.696 129.043 14.968 131.347 14.968C133.651 14.968 135.067 16.696 135.067 19.096C135.067 21.544 133.651 23.248 131.347 23.248ZM145.641 25.288C148.545 25.288 150.513 23.872 151.089 21.352H148.977C148.593 22.696 147.441 23.416 145.689 23.416C143.457 23.416 142.161 22.048 141.993 19.576L151.065 19.552V18.712C151.065 15.232 148.881 12.928 145.545 12.928C142.137 12.928 139.809 15.472 139.809 19.144C139.809 22.792 142.185 25.288 145.641 25.288ZM145.545 14.824C147.537 14.824 148.809 16.12 148.809 18.064H142.041C142.329 16 143.577 14.824 145.545 14.824Z" fill="currentColor"/>
<defs>
<clipPath id="clip0_117_12990">
<rect width="32" height="32" fill="currentColor"/>
</clipPath>
</defs>
</svg>
