<svg fill="none" xmlns="http://www.w3.org/2000/svg">
<path fill-rule="evenodd" clip-rule="evenodd" d="M15.5127 5.44788C15.7306 5.83484 15.7005 6.31381 15.4359 6.67045C13.42 9.3868 13.6348 13.2495 16.1308 15.652C18.1358 17.5818 21.0848 18.0957 23.6688 17.2999C24.088 17.1708 24.5439 17.297 24.837 17.6233C25.13 17.9496 25.2068 18.4164 25.0335 18.8194C23.4558 22.4892 19.6635 25.125 15.3506 25.125C9.62739 25.125 4.875 20.6115 4.875 15C4.875 9.6448 9.10784 5.37946 14.4273 4.87995C14.8695 4.83843 15.2947 5.06093 15.5127 5.44788ZM12.3853 7.63582C9.28039 8.7996 7.125 11.6642 7.125 15C7.125 19.2886 10.7882 22.875 15.3506 22.875C17.9064 22.875 20.2281 21.6956 21.7452 19.898C19.1866 20.0132 16.5574 19.1855 14.5705 17.2731C11.8913 14.6943 11.1941 10.8895 12.3853 7.63582Z" fill="currentColor"/>
</svg>
