<svg fill="none" xmlns="http://www.w3.org/2000/svg">
<path d="M10.72 24.3778C12.4919 24.389 14.2484 24.0482 15.8876 23.3752C17.5268 22.7023 19.0161 21.7106 20.269 20.4576C21.522 19.2047 22.5137 17.7154 23.1866 16.0762C23.8596 14.437 24.2003 12.6806 24.1892 10.9086C24.1892 10.6988 24.1892 10.4995 24.1892 10.2897C25.1077 9.61679 25.9027 8.78984 26.539 7.84556C25.6741 8.22383 24.7589 8.4747 23.822 8.59035C24.8154 7.99848 25.5607 7.06685 25.92 5.96785C24.9943 6.52323 23.9792 6.91366 22.9199 7.12175C22.2065 6.36161 21.2625 5.85776 20.2339 5.68817C19.2053 5.51858 18.1495 5.6927 17.2298 6.18358C16.3102 6.67446 15.5779 7.45475 15.1464 8.40371C14.7149 9.35267 14.6081 10.4174 14.8426 11.4331C12.9607 11.3408 11.1194 10.8531 9.43852 10.0018C7.75765 9.15051 6.27492 7.95474 5.08689 6.49235C4.48783 7.53209 4.30625 8.76063 4.57892 9.92921C4.85159 11.0978 5.55813 12.1191 6.55549 12.7864C5.81973 12.758 5.101 12.5567 4.45749 12.1989V12.2514C4.45095 13.338 4.817 14.394 5.49464 15.2434C6.17228 16.0928 7.12056 16.6844 8.18144 16.9194C7.49711 17.1035 6.78028 17.1321 6.08344 17.0033C6.39057 17.93 6.97686 18.739 7.76189 19.3193C8.54692 19.8996 9.49226 20.2229 10.4683 20.2448C8.79953 21.588 6.72552 22.3274 4.58337 22.3428C4.20778 22.3319 3.83307 22.3004 3.46094 22.2483C5.62918 23.6298 8.14914 24.3581 10.72 24.3463" fill="currentColor"/>
</svg>
